<?xml version="1.0" encoding="utf-8"?>
<!-- Generator: Adobe Illustrator 19.0.0, SVG Export Plug-In . SVG Version: 6.00 Build 0)  -->
<svg version="1.1" id="Ebene_1" xmlns="http://www.w3.org/2000/svg" xmlns:xlink="http://www.w3.org/1999/xlink" x="0px" y="0px"
	 viewBox="0 0 595.3 841.9" style="enable-background:new 0 0 595.3 841.9;" xml:space="preserve">
<style type="text/css">
	.st0{fill:#E30613;}
	.st1{fill:#009640;}
</style>
<path id="XMLID_52_" class="st0" d="M411.7,52H-59.6c-9,0-16.2,7.3-16.2,16.2v193.1h503.7V68.2C427.9,59.2,420.6,52,411.7,52z"/>
<path id="XMLID_26_" d="M164.3,200c-4.3-25.3-17.4-48.5-37.1-65.3c-19.9-17-45.2-26.3-71.4-26.3s-51.5,9.3-71.4,26.3
	c-19.6,16.8-32.8,40-37.1,65.3c-1,6,0.7,12,4.6,16.6s9.6,7.3,15.7,7.3H144c6.1,0,11.8-2.7,15.7-7.3C163.6,212,165.3,205.9,164.3,200
	z M59.3,196.3v-76.8c8.2,0.3,16.2,1.6,23.8,3.7L59.3,196.3z M89.8,125.3c7.6,2.8,14.8,6.4,21.5,10.9L66,198.5L89.8,125.3z
	 M52.3,196.3l-23.8-73.1c7.6-2.2,15.6-3.4,23.8-3.7V196.3z M45.5,197.9L0.6,136.1c6.6-4.4,13.7-8.1,21.3-10.8L45.5,197.9z
	 M148.9,184.5l-73.1,23.8L138,163C142.4,169.6,146.1,176.8,148.9,184.5z M133.9,157.4l-62.2,45.2l45.2-62.3
	C123.2,145.3,128.9,151,133.9,157.4z M-5.1,140.2L40.5,203l-62.7-45.6C-17.2,151-11.5,145.2-5.1,140.2z M35.9,208.3l-73.1-23.8
	c2.8-7.7,6.5-14.9,10.9-21.5L35.9,208.3z M-39.7,209.5c-1.8-2.1-2.6-4.9-2.1-7.7c0.6-3.6,1.4-7.2,2.4-10.7l66.9,21.8h-59.9
	C-35.2,212.9-37.8,211.7-39.7,209.5z M151.3,209.5c-1.8,2.2-4.5,3.4-7.3,3.4H84.1l66.9-21.8c1,3.5,1.8,7,2.4,10.7
	C153.9,204.6,153.1,207.4,151.3,209.5z"/>
<path id="XMLID_2_" d="M404.7,200c-4.3-25.3-17.4-48.5-37.1-65.3c-19.9-17-45.2-26.3-71.4-26.3s-51.5,9.3-71.4,26.3
	c-19.6,16.8-32.8,40-37.1,65.3c-1,6,0.7,12,4.6,16.6c3.9,4.6,9.6,7.3,15.7,7.3h176.4c6.1,0,11.8-2.7,15.7-7.3
	C404,212,405.7,205.9,404.7,200z M299.7,196.3v-76.8c8.2,0.3,16.2,1.6,23.8,3.7L299.7,196.3z M330.2,125.3
	c7.6,2.8,14.8,6.4,21.5,10.9l-45.2,62.2L330.2,125.3z M292.7,196.3L269,123.2c7.6-2.2,15.6-3.4,23.8-3.7L292.7,196.3L292.7,196.3z
	 M285.9,197.9L241,136.1c6.6-4.4,13.7-8.1,21.3-10.8L285.9,197.9z M389.3,184.5l-73.1,23.8l62.2-45.2
	C382.9,169.6,386.5,176.8,389.3,184.5z M374.3,157.4l-62.2,45.2l45.2-62.3C363.6,145.3,369.3,151,374.3,157.4z M235.3,140.2
	l45.6,62.7l-62.7-45.6C223.2,151,228.9,145.2,235.3,140.2z M276.3,208.3l-73.1-23.8c2.8-7.7,6.5-14.9,10.9-21.5L276.3,208.3z
	 M200.7,209.5c-1.8-2.1-2.6-4.9-2.1-7.7c0.6-3.6,1.4-7.2,2.4-10.7l66.9,21.8H208C205.2,212.9,202.6,211.7,200.7,209.5z M391.7,209.5
	c-1.8,2.2-4.5,3.4-7.3,3.4h-59.9l66.9-21.8c1,3.5,1.8,7,2.4,10.7C394.3,204.6,393.6,207.4,391.7,209.5z"/>
<g id="XMLID_15_">
	<path id="XMLID_161_" d="M-29.6,90.7l-6.9-11.1v11.1h-4.4v-23h4.4v10.5l6.9-10.5h5.2l-7.8,11l8.2,12H-29.6z"/>
	<path id="XMLID_163_" d="M-4.8,81.6c0,1.4-0.2,2.7-0.6,3.9s-1,2.2-1.7,3s-1.7,1.5-2.8,1.9s-2.3,0.7-3.7,0.7c-1.3,0-2.5-0.2-3.6-0.6
		s-1.9-1-2.7-1.7s-1.3-1.7-1.7-2.9s-0.6-2.5-0.6-4c0-1.4,0.2-2.7,0.6-3.9s1-2.2,1.7-3s1.7-1.5,2.8-1.9s2.3-0.7,3.7-0.7
		c1.3,0,2.5,0.2,3.6,0.6s1.9,1,2.7,1.7s1.3,1.7,1.7,2.9S-4.8,80.1-4.8,81.6z M-9.3,81.7c0-1.9-0.3-3.2-1-4.2s-1.7-1.4-3.1-1.4
		c-0.8,0-1.4,0.1-1.9,0.4s-1,0.7-1.3,1.2s-0.6,1.1-0.7,1.8s-0.2,1.4-0.2,2.2c0,1.9,0.4,3.3,1.1,4.2s1.8,1.4,3.1,1.4
		c0.7,0,1.3-0.1,1.9-0.4s1-0.7,1.3-1.2s0.6-1.1,0.7-1.8S-9.3,82.5-9.3,81.7z"/>
	<path id="XMLID_166_" d="M9.5,90.7V79c0-2-0.7-2.9-2.2-2.9c-0.7,0-1.4,0.3-2.1,0.9s-1.4,1.4-2.1,2.4v11.3h-4.3V72.8h3.7l0.1,2.6
		c0.4-0.5,0.7-0.9,1.1-1.2s0.8-0.7,1.3-1s0.9-0.5,1.5-0.6s1.1-0.2,1.8-0.2c0.9,0,1.7,0.1,2.4,0.4s1.2,0.7,1.7,1.3s0.8,1.2,1,2
		s0.3,1.6,0.3,2.6v12L9.5,90.7L9.5,90.7z"/>
	<path id="XMLID_168_" d="M29.7,90.7l-6.6-8.9v8.9h-4.3V65.8h4.3v14.5l6.2-7.6h5.4L27.5,81l7.8,9.7H29.7z"/>
	<path id="XMLID_170_" d="M44.2,69.2h-5v-3.3h9.4v21.5h5.2v3.3H38.6v-3.3h5.7L44.2,69.2L44.2,69.2z"/>
	<path id="XMLID_172_" d="M62.5,72.8v11.6c0,1,0.2,1.7,0.5,2.2s0.9,0.7,1.7,0.7c0.7,0,1.4-0.3,2.1-0.9s1.4-1.4,2.1-2.4V72.8h4.3
		v17.9h-3.7L69.4,88c-0.4,0.5-0.8,0.9-1.1,1.2s-0.8,0.7-1.3,1s-0.9,0.5-1.5,0.6S64.4,91,63.7,91c-0.9,0-1.7-0.1-2.4-0.4
		s-1.3-0.7-1.7-1.3s-0.8-1.2-1-2s-0.3-1.6-0.3-2.6v-12h4.2V72.8z"/>
	<path id="XMLID_174_" d="M89.3,90.7L89.2,88c-0.4,0.5-0.8,0.9-1.2,1.2s-0.8,0.7-1.3,1s-0.9,0.5-1.5,0.6S84.1,91,83.5,91
		c-1.1,0-2-0.2-2.8-0.6s-1.5-1-2.1-1.8s-1-1.7-1.3-2.8S77,83.5,77,82.1c0-1.6,0.2-3.1,0.7-4.3s1.1-2.2,1.9-3s1.8-1.4,2.9-1.8
		s2.3-0.6,3.7-0.6c0.4,0,0.9,0,1.3,0.1s0.9,0.1,1.2,0.2v-7H93v24.8h-3.7V90.7z M81.5,81.9c0,1,0.1,1.8,0.2,2.5s0.3,1.3,0.6,1.7
		s0.6,0.8,1,1s0.8,0.3,1.3,0.3c0.7,0,1.4-0.3,2.1-0.9s1.4-1.4,2.1-2.4v-7.8c-0.3-0.1-0.8-0.2-1.3-0.3s-1-0.1-1.5-0.1
		c-0.7,0-1.3,0.1-1.9,0.4s-1,0.7-1.4,1.2s-0.7,1.1-0.9,1.9S81.5,81,81.5,81.9z"/>
	<path id="XMLID_177_" d="M113.4,80.4c0,0.3,0,0.7,0,1.1s0,0.9-0.1,1.3h-11.7c0,0.8,0.1,1.5,0.4,2.1s0.6,1.1,1,1.5s1,0.7,1.6,0.9
		s1.3,0.3,2,0.3c0.9,0,1.8-0.1,2.8-0.2s2-0.4,3.1-0.7v3.4c-0.5,0.1-1,0.2-1.5,0.4s-1.1,0.2-1.7,0.3s-1.1,0.1-1.7,0.2
		s-1.1,0.1-1.7,0.1c-1.4,0-2.6-0.2-3.7-0.6s-2-1-2.7-1.7s-1.3-1.7-1.7-2.8s-0.6-2.4-0.6-3.9s0.2-2.8,0.6-4s1-2.2,1.7-3.1
		s1.6-1.5,2.6-2s2.2-0.7,3.5-0.7s2.4,0.2,3.4,0.6s1.8,0.9,2.4,1.6s1.2,1.5,1.5,2.5S113.4,79.2,113.4,80.4z M109.1,79.8
		c0-0.7-0.1-1.3-0.3-1.8s-0.4-1-0.8-1.3s-0.7-0.6-1.1-0.8s-0.9-0.2-1.4-0.2c-1.1,0-2,0.4-2.7,1.1s-1.1,1.7-1.2,3
		C101.6,79.8,109.1,79.8,109.1,79.8z"/>
	<path id="XMLID_180_" d="M128.3,90.7V79c0-2-0.7-2.9-2.2-2.9c-0.7,0-1.4,0.3-2.1,0.9s-1.4,1.4-2.1,2.4v11.3h-4.3V72.8h3.7l0.1,2.6
		c0.4-0.5,0.7-0.9,1.1-1.2s0.8-0.7,1.3-1s0.9-0.5,1.5-0.6s1.1-0.2,1.8-0.2c0.9,0,1.7,0.1,2.4,0.4s1.2,0.7,1.7,1.3s0.8,1.2,1,2
		s0.3,1.6,0.3,2.6v12L128.3,90.7L128.3,90.7z"/>
	<path id="XMLID_182_" d="M137.6,90.7v-3l8.7-11.2h-8.5v-3.7H152v3l-8.5,11.1h8.7v3.8C152.2,90.7,137.6,90.7,137.6,90.7z"/>
</g>
<g id="XMLID_16_">
	<path id="XMLID_135_" d="M199.5,90.7v-23h7.4c2.6,0,4.6,0.5,5.9,1.4s2,2.3,2,4.1c0,0.6-0.1,1.1-0.2,1.7s-0.3,1-0.6,1.5
		s-0.6,0.9-1.1,1.2s-0.9,0.6-1.5,0.8c0.6,0.1,1.1,0.3,1.6,0.6s1,0.6,1.4,1.1s0.7,1,0.9,1.6s0.3,1.3,0.3,2c0,2.3-0.8,4.1-2.4,5.3
		s-3.8,1.8-6.8,1.8L199.5,90.7L199.5,90.7z M210.3,74c0-0.4-0.1-0.8-0.2-1.2s-0.4-0.7-0.7-0.9s-0.7-0.4-1.2-0.6s-1.1-0.2-1.8-0.2
		h-2.6v6.1h2.6c0.7,0,1.3-0.1,1.8-0.3s0.9-0.4,1.2-0.7s0.5-0.6,0.7-1S210.3,74.4,210.3,74z M206.9,87.1c0.7,0,1.3-0.1,1.8-0.3
		s1-0.4,1.3-0.7s0.6-0.7,0.8-1.1s0.3-0.9,0.3-1.4c0-1-0.4-1.8-1.1-2.3s-1.9-0.8-3.4-0.8h-2.7v6.6C203.9,87.1,206.9,87.1,206.9,87.1z
		"/>
	<path id="XMLID_139_" d="M225.3,69.2h-5v-3.3h9.4v21.5h5.2v3.3h-15.2v-3.3h5.7L225.3,69.2L225.3,69.2z"/>
	<path id="XMLID_141_" d="M254.9,80.4c0,0.3,0,0.7,0,1.1s0,0.9-0.1,1.3H243c0,0.8,0.1,1.5,0.4,2.1s0.6,1.1,1,1.5s1,0.7,1.6,0.9
		s1.3,0.3,2,0.3c0.9,0,1.8-0.1,2.8-0.2s2-0.4,3.1-0.7v3.4c-0.5,0.1-1,0.2-1.5,0.4s-1.1,0.2-1.7,0.3S249.6,91,249,91
		s-1.1,0.1-1.7,0.1c-1.4,0-2.6-0.2-3.7-0.6s-2-1-2.7-1.7s-1.3-1.7-1.7-2.8s-0.6-2.4-0.6-3.9s0.2-2.8,0.6-4s1-2.2,1.7-3.1
		s1.6-1.5,2.6-2s2.2-0.7,3.5-0.7s2.4,0.2,3.4,0.6s1.8,0.9,2.4,1.6s1.2,1.5,1.5,2.5S254.9,79.2,254.9,80.4z M250.5,79.8
		c0-0.7-0.1-1.3-0.3-1.8s-0.4-1-0.8-1.3s-0.7-0.6-1.1-0.8s-0.9-0.2-1.4-0.2c-1.1,0-2,0.4-2.7,1.1s-1.1,1.7-1.2,3
		C243,79.8,250.5,79.8,250.5,79.8z"/>
	<path id="XMLID_144_" d="M274.7,80.4c0,0.3,0,0.7,0,1.1s0,0.9-0.1,1.3h-11.7c0,0.8,0.1,1.5,0.4,2.1s0.6,1.1,1,1.5s1,0.7,1.6,0.9
		s1.3,0.3,2,0.3c0.9,0,1.8-0.1,2.8-0.2s2-0.4,3.1-0.7v3.4c-0.5,0.1-1,0.2-1.5,0.4s-1.1,0.2-1.7,0.3s-1.1,0.1-1.7,0.2
		s-1.1,0.1-1.7,0.1c-1.4,0-2.6-0.2-3.7-0.6s-2-1-2.7-1.7s-1.3-1.7-1.7-2.8s-0.6-2.4-0.6-3.9s0.2-2.8,0.6-4s1-2.2,1.7-3.1
		s1.6-1.5,2.6-2s2.2-0.7,3.5-0.7s2.4,0.2,3.4,0.6s1.8,0.9,2.4,1.6s1.2,1.5,1.5,2.5S274.7,79.2,274.7,80.4z M270.3,79.8
		c0-0.7-0.1-1.3-0.3-1.8s-0.4-1-0.8-1.3s-0.7-0.6-1.1-0.8s-0.9-0.2-1.4-0.2c-1.1,0-2,0.4-2.7,1.1s-1.1,1.7-1.2,3
		C262.8,79.8,270.3,79.8,270.3,79.8z"/>
	<path id="XMLID_147_" d="M295,81.4c0,1.6-0.2,3.1-0.7,4.3s-1.1,2.2-1.9,3s-1.8,1.4-2.9,1.8s-2.3,0.6-3.7,0.6c-0.4,0-0.9,0-1.3-0.1
		s-0.8-0.1-1.2-0.2v7H279v-25h3.7l0.1,2.6c0.4-0.5,0.7-0.9,1.1-1.2s0.8-0.7,1.3-1s0.9-0.5,1.5-0.6s1.1-0.2,1.8-0.2
		c1.1,0,2,0.2,2.8,0.6s1.5,1,2.1,1.8s1,1.7,1.3,2.8S295,80,295,81.4z M290.5,81.6c0-1-0.1-1.8-0.2-2.5s-0.3-1.3-0.6-1.7
		s-0.6-0.8-1-1s-0.8-0.3-1.3-0.3c-0.7,0-1.4,0.3-2.1,0.9s-1.4,1.4-2.1,2.4v7.8c0.3,0.1,0.8,0.2,1.3,0.3s1,0.1,1.5,0.1
		c0.7,0,1.3-0.1,1.9-0.4s1-0.7,1.4-1.2s0.7-1.1,0.9-1.9S290.5,82.5,290.5,81.6z"/>
	<path id="XMLID_150_" d="M313.4,90.5c-0.8,0.2-1.6,0.3-2.3,0.4s-1.5,0.2-2.2,0.2c-1.2,0-2.2-0.1-3-0.4s-1.6-0.6-2.1-1.1
		s-1-1.1-1.2-1.9s-0.4-1.7-0.4-2.8v-8.7h-4.8v-3.3h4.8v-4.6l4.4-1.1v5.7h6.9v3.3h-6.9v8.4c0,1,0.2,1.8,0.7,2.3s1.3,0.8,2.4,0.8
		c0.7,0,1.4-0.1,2.1-0.2s1.3-0.3,1.8-0.4v3.4H313.4z"/>
	<path id="XMLID_152_" d="M330,79.8c0-0.7,0-1.2-0.1-1.7s-0.2-0.9-0.4-1.2s-0.4-0.5-0.7-0.7s-0.6-0.2-1-0.2c-0.6,0-1.3,0.3-2,0.8
		s-1.4,1.4-2.2,2.6v11.3h-4.4V72.8h3.9l0.2,2.6c0.3-0.5,0.6-0.9,1-1.2s0.8-0.7,1.2-0.9s1-0.5,1.5-0.6s1.2-0.2,1.8-0.2
		c0.9,0,1.7,0.2,2.4,0.5s1.3,0.8,1.8,1.4s0.8,1.4,1.1,2.3s0.3,2,0.3,3.2H330V79.8z"/>
	<path id="XMLID_154_" d="M349.5,90.7l-0.1-2.3c-0.4,0.4-0.8,0.8-1.2,1.1s-0.9,0.6-1.4,0.9s-1,0.4-1.6,0.6s-1.2,0.2-1.9,0.2
		c-0.9,0-1.7-0.1-2.4-0.4s-1.3-0.6-1.7-1.1s-0.8-1.1-1.1-1.7s-0.4-1.4-0.4-2.3c0-0.8,0.2-1.6,0.5-2.3s0.9-1.3,1.6-1.8
		s1.6-0.9,2.7-1.2s2.4-0.4,3.9-0.4h2.3v-1.1c0-0.5-0.1-0.9-0.2-1.2s-0.3-0.7-0.6-0.9s-0.7-0.5-1.1-0.6s-1-0.2-1.7-0.2
		c-1.1,0-2.1,0.1-3.1,0.4s-2,0.6-3,1V74c0.9-0.3,1.8-0.6,3-0.8s2.3-0.3,3.5-0.3c1.3,0,2.5,0.1,3.4,0.4s1.7,0.6,2.3,1.1
		s1.1,1.1,1.4,1.9s0.4,1.6,0.4,2.6v12.2h-3.5V90.7z M348.9,82.8h-2.6c-0.7,0-1.3,0.1-1.8,0.2s-0.9,0.3-1.2,0.6s-0.5,0.5-0.7,0.9
		s-0.2,0.7-0.2,1c0,0.7,0.2,1.3,0.7,1.7s1.1,0.6,1.9,0.6c0.6,0,1.2-0.2,1.9-0.7s1.4-1.1,2.1-1.9L348.9,82.8L348.9,82.8z"/>
	<path id="XMLID_157_" d="M372.5,90c-0.8,0.3-1.7,0.6-2.6,0.8s-1.8,0.2-2.8,0.2c-1.4,0-2.7-0.2-3.8-0.6s-2.1-1-2.9-1.7
		s-1.4-1.7-1.8-2.8S358,83.4,358,82s0.2-2.7,0.7-3.9s1.1-2.2,1.9-3s1.8-1.5,3-1.9s2.4-0.7,3.9-0.7c1.2,0,2.1,0.1,2.9,0.2
		s1.5,0.3,2.1,0.5v4.2c-0.7-0.4-1.5-0.6-2.4-0.8s-1.7-0.3-2.4-0.3c-0.8,0-1.5,0.1-2.1,0.4s-1.2,0.6-1.6,1.1s-0.8,1.1-1,1.7
		s-0.3,1.4-0.3,2.3s0.1,1.6,0.4,2.3s0.6,1.3,1,1.7s1,0.8,1.6,1.1s1.3,0.4,2.1,0.4c0.4,0,0.8,0,1.2-0.1s0.8-0.1,1.2-0.2
		s0.8-0.2,1.2-0.3s0.8-0.3,1.1-0.4L372.5,90L372.5,90z"/>
	<path id="XMLID_159_" d="M388.9,90.7l-6.6-8.9v8.9H378V65.8h4.3v14.5l6.2-7.6h5.4l-7.2,8.1l7.8,9.7h-5.6V90.7z"/>
</g>
<circle id="XMLID_17_" class="st0" cx="55.8" cy="219.6" r="14.2"/>
<circle id="XMLID_18_" class="st0" cx="296.2" cy="219.6" r="14.2"/>
<path id="XMLID_46_" class="st0" d="M391.6,322.5H-79.7c-9,0-16.2,7.3-16.2,16.2v193.1h503.7V338.7
	C407.8,329.7,400.6,322.5,391.6,322.5z M379.5,474.4h-46c-4.2,0-7.6,3.4-7.6,7.6v35.7h-21.3h-28.3h-85H170v-37.3c0-2.7-2.2-5-5-5
	H90.4c-2.7,0-5,2.2-5,5v37.3H64.2H35.8h-85h-21.3v-47.4v-7.9V350.8h15.9h35.2h385.7c7.2,0,13,5.8,13,13v110.6H379.5z"/>
<g id="XMLID_49_">
	<path id="XMLID_56_" class="st0" d="M385.2,561.7H-86.1c-9,0-16.2,7.3-16.2,16.2V771h25.4v-14.1v-11.3c0-6.3,5.1-11.3,11.3-11.3
		c6.3,0,11.3,5.1,11.3,11.3v11.3V771h455.6V577.9C401.4,568.9,394.2,561.7,385.2,561.7z"/>
	<circle id="XMLID_20_" class="st1" cx="-88.1" cy="609.4" r="7.8"/>
	<circle id="XMLID_55_" class="st1" cx="387.3" cy="609.4" r="7.8"/>
</g>
<g id="XMLID_1_">
	<path id="XMLID_19_" class="st0" d="M-78.7,807.8v193.1H425V807.8c0-9-7.3-16.2-16.2-16.2H-62.5C-71.5,791.6-78.7,798.8-78.7,807.8
		z M-50.4,833c0-7.2,5.8-13,13-13h385.7h35.2h15.9v111.6v7.9v47.4h-21.3h-85h-28.3h-21.3v-37.3c0-2.7-2.2-5-5-5H164
		c-2.7,0-5,2.2-5,5v37.3h-21.3h-85H24.5H3.2v-35.7c0-4.2-3.4-7.6-7.6-7.6h-46V833z"/>
	<circle id="XMLID_57_" class="st1" cx="-64.6" cy="839.4" r="7.8"/>
	<circle id="XMLID_59_" class="st1" cx="410.8" cy="839.4" r="7.8"/>
</g>
<g id="XMLID_23_">
</g>
<g id="XMLID_184_">
</g>
<g id="XMLID_185_">
</g>
<g id="XMLID_186_">
</g>
<g id="XMLID_187_">
</g>
<g id="XMLID_188_">
</g>
</svg>
